<?xml version="1.0" encoding="UTF-8"?>
<svg id="Layer_2" data-name="Layer 2" xmlns="http://www.w3.org/2000/svg" viewBox="0 0 1575.03 451">
  <defs>
    <style>
      .cls-1 {
        fill: #a3d667;
      }

      .cls-1, .cls-2, .cls-3, .cls-4, .cls-5, .cls-6, .cls-7 {
        stroke-width: 0px;
      }

      .cls-2 {
        fill: #ffb133;
      }

      .cls-3 {
        fill: #fff;
      }

      .cls-4 {
        fill: #70cbd6;
      }

      .cls-5 {
        fill: #ec2e91;
      }

      .cls-6 {
        fill: #8c63a8;
      }

      .cls-7 {
        fill: #3a53a4;
      }
    </style>
  </defs>
  <g id="sixty6">
    <path class="cls-1" d="m462.58,375.72l32.09-38.33c20.8,16.34,43.38,24.96,67.44,24.96,15.75,0,24.07-5.35,24.07-14.26,0-9.8-7.13-11.29-35.36-17.83-44.27-10.1-78.44-21.69-78.44-64.17s32.09-67.15,80.52-67.15c35.35,0,62.99,9.51,85.57,27.63l-28.82,40.7c-19.01-13.67-39.81-20.5-58.23-20.5-13.96,0-20.8,5.65-20.8,13.37,0,10.4,7.13,13.67,36.25,19.91,47.54,10.1,77.25,22.88,77.25,61.8,0,43.08-32.98,68.33-84.08,68.33-36.84,0-71.6-11.59-97.45-34.46Zm207.97-173.21h57.64v204.11h-57.64v-204.11Zm220.75,101.61l72.49,102.5h-67.44l-38.92-54.96-39.22,54.96h-66.25l72.49-101.61-72.49-102.5h67.44l38.92,54.96,39.22-54.96h66.25l-72.49,101.61Zm142.91-50.21h-60.31v-51.4h178.26v51.4h-60.31v152.71h-57.64v-152.71Zm204.41,85.57l-78.44-136.96h65.96l41.3,82.89,43.67-82.89h63.28l-78.14,136.96v67.15h-57.64v-67.15Zm326.81-2.08c0,44.57-36.25,72.79-82.3,72.79-62.39,0-92.99-41.3-92.99-101.91,0-65.66,38.03-109.33,101.31-109.33,25.85,0,47.83,7.73,65.66,20.5l-26.14,43.38c-12.18-8.91-23.47-13.67-38.92-13.67-21.69,0-35.06,12.48-40.11,35.35,11.88-7.72,28.22-12.78,44.27-12.78,38.03,0,69.23,24.96,69.23,65.66Zm-59.42,2.38c0-13.96-13.37-21.99-28.22-21.99-11.59,0-21.39,5.94-27.04,15.75,2.67,19.91,10.1,27.93,28.52,27.93,16.04,0,26.74-9.21,26.74-21.69Z"/>
  </g>
  <g id="foundation">
    <path class="cls-1" d="m492.21,81.02v15.9h53.59v28.35h-53.59v39.99h-31.8V52.67h90.63v28.35h-58.84Zm68.01,27.86c0-31.63,28.03-58.18,61.3-58.18s61.3,26.55,61.3,58.18-28.03,58.35-61.3,58.35-61.3-26.71-61.3-58.35Zm89.81,0c0-15.9-13.11-29.34-28.52-29.34s-28.52,13.44-28.52,29.34,13.11,29.5,28.52,29.5,28.52-13.44,28.52-29.5Zm44.58,6.39v-62.61h31.79v60.97c0,14.42,9.01,24.75,21.8,24.75s21.8-10.33,21.8-24.75v-60.97h31.79v62.61c0,30.48-22.12,51.95-53.59,51.95s-53.59-21.47-53.59-51.95Zm125.87-62.61h31.79l43.92,60.31v-60.31h31.8v112.6h-31.8l-43.92-60.31v60.31h-31.79V52.67Zm129.15,0h41.96c39.33,0,67.2,23.27,67.2,56.22s-27.86,56.38-67.2,56.38h-41.96V52.67Zm47.2,83.75c17.04,0,29.17-11.47,29.17-27.53s-12.13-27.37-29.17-27.37h-15.41v54.9h15.41Zm140.13,13.77h-39.17l-5.74,15.08h-35.89l43.27-112.6h35.89l43.27,112.6h-35.89l-5.74-15.08Zm-9.01-23.44l-10.49-27.37-10.65,27.37h21.14Zm76.54-45.73h-33.27v-28.35h98.34v28.35h-33.27v84.24h-31.79v-84.24Zm79.16-28.35h31.79v112.6h-31.79V52.67Zm46.54,56.22c0-31.63,28.03-58.18,61.3-58.18s61.3,26.55,61.3,58.18-28.03,58.35-61.3,58.35-61.3-26.71-61.3-58.35Zm89.81,0c0-15.9-13.11-29.34-28.52-29.34s-28.52,13.44-28.52,29.34,13.11,29.5,28.52,29.5,28.52-13.44,28.52-29.5Zm47.53-56.22h31.79l43.92,60.31v-60.31h31.8v112.6h-31.8l-43.92-60.31v60.31h-31.79V52.67Z"/>
  </g>
  <g id="orange">
    <circle id="orange-2" data-name="orange" class="cls-2" cx="209.72" cy="112.81" r="112.81"/>
  </g>
  <g id="pink">
    <circle id="pink-2" data-name="pink" class="cls-5" cx="112.83" cy="170.38" r="112.81"/>
  </g>
  <g id="top-petal">
    <path id="top-petal-2" data-name="top-petal" class="cls-3" d="m168,71.99c-17.95-10.06-37.46-14.69-56.66-14.42-9.41,16.73-14.68,36.08-14.42,56.65.78,62.3,51.92,112.16,114.21,111.38.02,0,.04,0,.06,0,0-.02.02-.03.03-.05,30.47-54.34,11.12-123.09-43.22-153.57Z"/>
  </g>
  <g id="blue">
    <circle id="blue-2" data-name="blue" class="cls-7" cx="308.02" cy="167.93" r="112.81"/>
  </g>
  <g id="purple">
    <circle id="purple-2" data-name="purple" class="cls-6" cx="309.43" cy="280.62" r="112.81"/>
  </g>
  <g id="middle-petal">
    <path id="middle-pertal" class="cls-3" d="m364.61,182.23c-54.34-30.47-123.09-11.12-153.57,43.22,0,.02-.02.03-.03.05,0,.02.02.03.03.05,31.82,53.56,101.04,71.18,154.6,39.35,17.69-10.51,31.45-25.1,40.81-41.86-9.78-16.52-23.91-30.76-41.85-40.82Z"/>
  </g>
  <g id="green">
    <circle id="gren" class="cls-1" cx="212.54" cy="338.2" r="112.81"/>
  </g>
  <g id="teal">
    <circle id="teal-2" data-name="teal" class="cls-4" cx="114.24" cy="283.07" r="112.81"/>
  </g>
  <g id="bottom-petal">
    <path id="bottom-petal-2" data-name="bottom-petal" class="cls-3" d="m99.75,339.61c.26,20.57,6.01,39.79,15.84,56.27,19.19-.21,38.59-5.32,56.28-15.84,53.56-31.82,71.18-101.04,39.35-154.6,0-.02-.02-.03-.03-.05-.02,0-.04,0-.06,0-62.3.78-112.16,51.92-111.38,114.21Z"/>
  </g>
</svg>